<svg xmlns="http://www.w3.org/2000/svg" width="320" height="320" viewBox="0 0 320 320" fill="none">
<g opacity="0.62">
<circle cx="160" cy="160" r="126" stroke="#C2A067" stroke-width="1.2" opacity="0.35"/>
<circle cx="160" cy="160" r="92" stroke="#C2A067" stroke-width="0.9" opacity="0.28"/>
<path d="M160 46V98" stroke="#C2A067" stroke-width="1.2" stroke-linecap="round" opacity="0.34"/>
<path d="M134 72H186" stroke="#C2A067" stroke-width="1.2" stroke-linecap="round" opacity="0.34"/>
<path d="M160 222V274" stroke="#C2A067" stroke-width="1.2" stroke-linecap="round" opacity="0.34"/>
<path d="M134 248H186" stroke="#C2A067" stroke-width="1.2" stroke-linecap="round" opacity="0.34"/>
<path d="M246 160H194" stroke="#C2A067" stroke-width="1.2" stroke-linecap="round" opacity="0.34"/>
<path d="M220 134V186" stroke="#C2A067" stroke-width="1.2" stroke-linecap="round" opacity="0.34"/>
<path d="M74 160H126" stroke="#C2A067" stroke-width="1.2" stroke-linecap="round" opacity="0.34"/>
<path d="M100 134V186" stroke="#C2A067" stroke-width="1.2" stroke-linecap="round" opacity="0.34"/>
<path d="M160 116C182 116 200 134 200 156C200 178 182 196 160 196C138 196 120 178 120 156C120 134 138 116 160 116Z" stroke="#731C2B" stroke-width="1.3" opacity="0.16"/>
<path d="M160 132V180" stroke="#731C2B" stroke-width="1.4" stroke-linecap="round" opacity="0.18"/>
<path d="M136 156H184" stroke="#731C2B" stroke-width="1.4" stroke-linecap="round" opacity="0.18"/>
</g></svg>